<?xml version="1.0" encoding="UTF-8"?>
<svg xmlns="http://www.w3.org/2000/svg" xmlns:xlink="http://www.w3.org/1999/xlink" width="1280" height="769" viewBox="0 0 1280 769">
<path fill-rule="nonzero" fill="rgb(36.480713%, 38.911438%, 39.006042%)" fill-opacity="1" d="M 707.234375 308.882812 C 707.234375 344.210938 678.492188 372.960938 643.164062 372.960938 L 550.183594 372.960938 L 550.183594 362.410156 L 643.164062 362.410156 C 672.675781 362.410156 696.695312 338.402344 696.695312 308.882812 C 696.695312 301.25 695.035156 293.582031 691.882812 286.671875 L 592.675781 286.671875 L 592.675781 303.609375 L 677.515625 303.609375 L 677.515625 308.882812 C 677.515625 326.941406 662.824219 341.640625 644.765625 341.640625 L 550.183594 341.640625 L 550.183594 244.8125 L 643.164062 244.8125 C 657.234375 244.8125 670.753906 249.382812 681.855469 257.789062 L 674.652344 265.582031 C 665.542969 258.949219 654.574219 255.351562 643.164062 255.351562 L 560.722656 255.351562 L 560.722656 331.089844 L 644.765625 331.089844 C 655.042969 331.089844 663.933594 324.039062 666.34375 314.152344 L 581.503906 314.152344 L 581.503906 276.128906 L 698.335938 276.121094 L 699.8125 278.929688 C 704.675781 288.089844 707.234375 298.449219 707.234375 308.882812 "/>
<path fill-rule="nonzero" fill="rgb(36.480713%, 38.911438%, 39.006042%)" fill-opacity="1" d="M 454.847656 467.570312 L 466.460938 467.570312 C 481.949219 467.570312 490.105469 458.675781 490.105469 444.835938 C 490.105469 430.910156 481.949219 422.015625 466.378906 422.015625 L 454.847656 422.015625 Z M 448.421875 473.503906 L 448.421875 416.085938 L 466.875 416.085938 C 476.019531 416.085938 483.269531 418.71875 488.539062 423.992188 C 493.894531 429.265625 496.53125 436.183594 496.53125 444.835938 C 496.53125 453.484375 493.894531 460.40625 488.621094 465.675781 C 483.351562 470.867188 476.101562 473.503906 466.957031 473.503906 "/>
<path fill-rule="nonzero" fill="rgb(36.480713%, 38.911438%, 39.006042%)" fill-opacity="1" d="M 533.027344 453.402344 L 553.789062 453.402344 L 543.40625 429.015625 Z M 517.539062 473.503906 L 543.488281 414.023438 L 569.523438 473.503906 L 562.519531 473.503906 L 556.339844 459.335938 L 530.472656 459.335938 L 524.296875 473.503906 "/>
<path fill-rule="nonzero" fill="rgb(36.480713%, 38.911438%, 39.006042%)" fill-opacity="1" d="M 596.460938 473.503906 L 596.460938 416.082031 L 602.886719 416.082031 L 602.886719 467.570312 L 626.53125 467.570312 L 626.53125 473.503906 "/>
<path fill-rule="nonzero" fill="rgb(36.480713%, 38.911438%, 39.006042%)" fill-opacity="1" d="M 653.800781 473.503906 L 653.800781 416.082031 L 660.226562 416.082031 L 660.226562 440.054688 L 692.105469 440.054688 L 692.105469 416.082031 L 698.53125 416.082031 L 698.53125 473.503906 L 692.105469 473.503906 L 692.105469 445.988281 L 660.226562 445.988281 L 660.226562 473.503906 "/>
<path fill-rule="nonzero" fill="rgb(36.480713%, 38.911438%, 39.006042%)" fill-opacity="1" d="M 730.167969 473.503906 L 730.167969 416.082031 L 762.625 416.082031 L 762.625 422.015625 L 736.59375 422.015625 L 736.59375 440.222656 L 761.0625 440.222656 L 761.0625 446.152344 L 736.59375 446.152344 L 736.59375 467.570312 L 763.203125 467.570312 L 763.203125 473.503906 "/>
<path fill-rule="nonzero" fill="rgb(36.480713%, 38.911438%, 39.006042%)" fill-opacity="1" d="M 798.296875 444.835938 L 810.820312 444.835938 C 814.113281 444.835938 816.832031 443.761719 818.976562 441.539062 C 821.199219 439.3125 822.269531 436.597656 822.269531 433.21875 C 822.269531 426.875 817.574219 422.015625 811.230469 422.015625 L 798.296875 422.015625 Z M 791.871094 473.503906 L 791.871094 416.085938 L 811.480469 416.085938 C 816.257812 416.085938 820.292969 417.730469 823.671875 421.023438 C 827.050781 424.238281 828.695312 428.355469 828.695312 433.21875 C 828.695312 440.796875 824.328125 446.976562 817.738281 449.527344 L 831.578125 473.503906 L 824.246094 473.503906 L 811.3125 450.765625 L 798.296875 450.765625 L 798.296875 473.503906 "/>
<path fill-rule="nonzero" fill="rgb(36.480713%, 38.911438%, 39.006042%)" fill-opacity="1" d="M 537.246094 518.089844 C 538.265625 520.539062 539.960938 521.765625 542.355469 521.765625 C 544.074219 521.765625 545.304688 521.183594 545.800781 520.335938 C 546.296875 519.488281 546.441406 518.875 546.441406 518.175781 C 546.441406 517.066406 546.089844 516.21875 545.417969 515.636719 C 544.746094 515.050781 543.550781 514.382812 541.886719 513.652344 C 540.046875 512.835938 538.675781 512.015625 537.828125 511.230469 C 536.984375 510.441406 536.546875 509.273438 536.546875 507.785156 C 536.546875 506.324219 537.070312 505.128906 538.121094 504.164062 C 539.171875 503.199219 540.515625 502.734375 542.121094 502.734375 C 544.601562 502.734375 546.441406 503.816406 547.609375 505.976562 L 545.652344 506.96875 C 544.894531 505.535156 543.695312 504.835938 542.09375 504.835938 C 540.253906 504.835938 538.820312 506.0625 538.820312 507.726562 C 538.820312 508.777344 539.085938 509.476562 540.019531 510.179688 C 540.515625 510.5 540.894531 510.761719 541.214844 510.9375 L 542.96875 511.726562 C 545.039062 512.628906 546.5 513.535156 547.375 514.441406 C 548.28125 515.316406 548.71875 516.539062 548.71875 518.148438 C 548.71875 519.8125 548.164062 521.183594 547.023438 522.261719 C 545.914062 523.34375 544.339844 523.867188 542.324219 523.867188 C 539.085938 523.867188 536.457031 522.234375 535.289062 518.992188 "/>
<path fill-rule="nonzero" fill="rgb(36.480713%, 38.911438%, 39.006042%)" fill-opacity="1" d="M 559.605469 513.300781 C 559.605469 515.722656 560.394531 517.765625 561.96875 519.371094 C 563.574219 520.976562 565.558594 521.765625 567.953125 521.765625 C 570.347656 521.765625 572.332031 520.976562 573.90625 519.371094 C 575.484375 517.765625 576.269531 515.722656 576.269531 513.300781 C 576.269531 510.878906 575.484375 508.863281 573.90625 507.257812 C 572.332031 505.652344 570.347656 504.835938 567.953125 504.835938 C 565.558594 504.835938 563.574219 505.652344 561.96875 507.257812 C 560.394531 508.863281 559.605469 510.878906 559.605469 513.300781 M 557.355469 513.300781 C 557.355469 510.292969 558.378906 507.785156 560.421875 505.769531 C 562.496094 503.757812 565.003906 502.734375 567.953125 502.734375 C 570.898438 502.734375 573.410156 503.757812 575.453125 505.769531 C 577.527344 507.785156 578.546875 510.292969 578.546875 513.300781 C 578.546875 516.308594 577.527344 518.847656 575.453125 520.863281 C 573.410156 522.875 570.898438 523.867188 567.953125 523.867188 C 565.003906 523.867188 562.496094 522.875 560.421875 520.863281 C 558.378906 518.847656 557.355469 516.308594 557.355469 513.300781 "/>
<path fill-rule="nonzero" fill="rgb(36.480713%, 38.911438%, 39.006042%)" fill-opacity="1" d="M 588.441406 523.460938 L 588.441406 503.113281 L 590.71875 503.113281 L 590.71875 521.355469 L 599.097656 521.355469 L 599.097656 523.460938 "/>
<path fill-rule="nonzero" fill="rgb(36.480713%, 38.911438%, 39.006042%)" fill-opacity="1" d="M 607.882812 503.113281 L 610.15625 503.113281 L 610.15625 516.105469 C 610.15625 519.753906 612.203125 521.710938 615.5 521.710938 C 618.800781 521.710938 620.84375 519.753906 620.84375 516.105469 L 620.84375 503.113281 L 623.117188 503.113281 L 623.117188 516.335938 C 623.117188 518.730469 622.417969 520.570312 621.019531 521.882812 C 619.617188 523.167969 617.777344 523.808594 615.5 523.808594 C 613.222656 523.808594 611.386719 523.167969 609.984375 521.882812 C 608.582031 520.570312 607.882812 518.730469 607.882812 516.335938 "/>
<path fill-rule="nonzero" fill="rgb(36.480713%, 38.911438%, 39.006042%)" fill-opacity="1" d="M 637.917969 523.460938 L 637.917969 505.214844 L 632.371094 505.214844 L 632.371094 503.113281 L 645.738281 503.113281 L 645.738281 505.214844 L 640.191406 505.214844 L 640.191406 523.460938 "/>
<path fill-rule="nonzero" fill="rgb(36.480713%, 38.911438%, 39.006042%)" fill-opacity="1" d="M 655.253906 523.460938 L 657.53125 523.460938 L 657.53125 503.113281 L 655.253906 503.113281 Z M 655.253906 523.460938 "/>
<path fill-rule="nonzero" fill="rgb(36.480713%, 38.911438%, 39.006042%)" fill-opacity="1" d="M 669.789062 513.300781 C 669.789062 515.722656 670.578125 517.765625 672.152344 519.371094 C 673.761719 520.976562 675.742188 521.765625 678.136719 521.765625 C 680.53125 521.765625 682.515625 520.976562 684.09375 519.371094 C 685.667969 517.765625 686.457031 515.722656 686.457031 513.300781 C 686.457031 510.878906 685.667969 508.863281 684.09375 507.257812 C 682.515625 505.652344 680.53125 504.835938 678.136719 504.835938 C 675.742188 504.835938 673.761719 505.652344 672.152344 507.257812 C 670.578125 508.863281 669.789062 510.878906 669.789062 513.300781 M 667.542969 513.300781 C 667.542969 510.292969 668.5625 507.785156 670.605469 505.769531 C 672.679688 503.757812 675.1875 502.734375 678.136719 502.734375 C 681.085938 502.734375 683.597656 503.757812 685.640625 505.769531 C 687.714844 507.785156 688.734375 510.292969 688.734375 513.300781 C 688.734375 516.308594 687.714844 518.847656 685.640625 520.863281 C 683.597656 522.875 681.085938 523.867188 678.136719 523.867188 C 675.1875 523.867188 672.679688 522.875 670.605469 520.863281 C 668.5625 518.847656 667.542969 516.308594 667.542969 513.300781 "/>
<path fill-rule="nonzero" fill="rgb(36.480713%, 38.911438%, 39.006042%)" fill-opacity="1" d="M 698.628906 523.460938 L 698.628906 502.382812 L 712.902344 518.496094 L 712.902344 503.113281 L 715.179688 503.113281 L 715.179688 524.1875 L 700.902344 508.078125 L 700.902344 523.460938 "/>
<path fill-rule="nonzero" fill="rgb(36.480713%, 38.911438%, 39.006042%)" fill-opacity="1" d="M 726.851562 518.089844 C 727.875 520.539062 729.566406 521.765625 731.960938 521.765625 C 733.683594 521.765625 734.910156 521.183594 735.40625 520.335938 C 735.902344 519.488281 736.046875 518.875 736.046875 518.175781 C 736.046875 517.066406 735.699219 516.21875 735.027344 515.636719 C 734.355469 515.050781 733.160156 514.382812 731.496094 513.652344 C 729.65625 512.835938 728.285156 512.015625 727.4375 511.230469 C 726.589844 510.441406 726.152344 509.273438 726.152344 507.785156 C 726.152344 506.324219 726.675781 505.128906 727.730469 504.164062 C 728.78125 503.199219 730.121094 502.734375 731.726562 502.734375 C 734.210938 502.734375 736.046875 503.816406 737.214844 505.976562 L 735.257812 506.96875 C 734.5 505.535156 733.304688 504.835938 731.699219 504.835938 C 729.859375 504.835938 728.429688 506.0625 728.429688 507.726562 C 728.429688 508.777344 728.691406 509.476562 729.625 510.179688 C 730.121094 510.5 730.503906 510.761719 730.824219 510.9375 L 732.574219 511.726562 C 734.644531 512.628906 736.105469 513.535156 736.980469 514.441406 C 737.886719 515.316406 738.324219 516.539062 738.324219 518.148438 C 738.324219 519.8125 737.769531 521.183594 736.632812 522.261719 C 735.523438 523.34375 733.945312 523.867188 731.933594 523.867188 C 728.691406 523.867188 726.0625 522.234375 724.898438 518.992188 "/>
</svg>
