<svg xmlns="http://www.w3.org/2000/svg" xmlns:xlink="http://www.w3.org/1999/xlink" version="1.1" width="1000" height="1000" viewBox="0 0 1000 1000" xml:space="preserve">
<desc>Created with Fabric.js 3.5.0</desc>
<defs>
</defs>
<rect x="0" y="0" width="100%" height="100%" fill="rgba(255,255,255,0)"/>
<g transform="matrix(0.016 0 0 -0.0197 514.6102 440.5391)" id="320826">
<path style="stroke: rgb(225,227,233); stroke-width: 1; stroke-dasharray: none; stroke-linecap: butt; stroke-dashoffset: 0; stroke-linejoin: miter; stroke-miterlimit: 4; is-custom-font: none; font-file-url: none; fill: rgb(0,0,0); fill-rule: nonzero; opacity: 1;" vector-effect="non-scaling-stroke" transform=" translate(-3208.3901, -2660)" d="M 92 3283 l 3 -1918 l 1930 0 c 1832 0 1935 1 2035 18 c 280 50 499 164 701 366 c 147 147 237 287 304 471 c 53 147 66 230 72 448 l 6 202 l -1687 0 l -1686 0 l 0 340 l 0 340 l 1979 0 l 1978 0 l 46 -117 c 202 -524 189 -1114 -36 -1629 c -112 -255 -260 -466 -468 -670 c -337 -328 -746 -526 -1219 -590 c -87 -11 -431 -14 -2032 -14 l -1928 0 l 0 -205 l 0 -205 l 1993 3 l 1992 2 l 118 23 c 335 63 597 158 861 312 c 435 254 792 637 1010 1084 c 93 189 138 310 186 502 c 148 589 81 1202 -192 1749 c -38 77 -74 146 -80 153 c -8 9 -485 12 -2324 12 l -2314 0 l 0 -750 l 0 -750 l 1683 -2 l 1682 -3 l -3 -23 c -1 -13 -15 -56 -31 -95 c -123 -307 -402 -520 -732 -557 c -64 -7 -625 -10 -1764 -8 l -1670 3 l 0 1510 l 0 1510 l 1720 0 c 1619 0 1727 -1 1840 -18 c 339 -52 641 -167 902 -342 l 68 -45 l 26 28 c 113 120 249 270 249 275 c 0 17 -266 180 -405 247 c -185 91 -317 139 -501 186 c -293 74 -114 68 -2327 71 l -1987 3 l 2 -1917 z" stroke-linecap="round"/>
</g>
</svg>