<?xml version="1.0" standalone="no"?>
<!DOCTYPE svg PUBLIC "-//W3C//DTD SVG 20010904//EN"
 "http://www.w3.org/TR/2001/REC-SVG-20010904/DTD/svg10.dtd">
<svg version="1.0" xmlns="http://www.w3.org/2000/svg"
 width="2560.000000pt" height="2560.000000pt" viewBox="0 0 2560.000000pt 2560.000000pt"
 preserveAspectRatio="xMidYMid meet">
<metadata>
Created by potrace 1.16, written by Peter Selinger 2001-2019
</metadata>
<g transform="translate(0.000000,528.000000) scale(0.100000,-0.100000)"
fill="#000000" stroke="none">
<path d="M92 3283 l3 -1918 1930 0 c1832 0 1935 1 2035 18 280 50 499 164 701
366 147 147 237 287 304 471 53 147 66 230 72 448 l6 202 -1687 0 -1686 0 0
340 0 340 1979 0 1978 0 46 -117 c202 -524 189 -1114 -36 -1629 -112 -255
-260 -466 -468 -670 -337 -328 -746 -526 -1219 -590 -87 -11 -431 -14 -2032
-14 l-1928 0 0 -205 0 -205 1993 3 1992 2 118 23 c335 63 597 158 861 312 435
254 792 637 1010 1084 93 189 138 310 186 502 148 589 81 1202 -192 1749 -38
77 -74 146 -80 153 -8 9 -485 12 -2324 12 l-2314 0 0 -750 0 -750 1683 -2
1682 -3 -3 -23 c-1 -13 -15 -56 -31 -95 -123 -307 -402 -520 -732 -557 -64 -7
-625 -10 -1764 -8 l-1670 3 0 1510 0 1510 1720 0 c1619 0 1727 -1 1840 -18
339 -52 641 -167 902 -342 l68 -45 26 28 c113 120 249 270 249 275 0 17 -266
180 -405 247 -185 91 -317 139 -501 186 -293 74 -114 68 -2327 71 l-1987 3 2
-1917z"/>
</g>
</svg>
