<?xml version="1.0" standalone="no"?>
<!DOCTYPE svg PUBLIC "-//W3C//DTD SVG 1.0//EN" "http://www.w3.org/TR/2001/REC-SVG-20010904/DTD/svg10.dtd">
<svg xmlns="http://www.w3.org/2000/svg" xmlns:xlink="http://www.w3.org/1999/xlink" id="body_1" width="34" height="34">

<g transform="matrix(0.009960937 0 0 0.009960937 0 0)">
	<g transform="matrix(0.1 0 -0 -0.1 0 528)">
        <path d="M92 3283L95 1365L2025 1365C 3857 1365 3960 1366 4060 1383C 4340 1433 4559 1547 4761 1749C 4908 1896 4998 2036 5065 2220C 5118 2367 5131 2450 5137 2668L5137 2668L5143 2870L3456 2870L1770 2870L1770 3210L1770 3550L3749 3550L5727 3550L5773 3433C 5975 2909 5962 2319 5737 1804C 5625 1549 5477 1338 5269 1134C 4932 806 4523 608 4050 544C 3963 533 3619 530 2018 530L2018 530L90 530L90 325L90 120L2083 123L4075 125L4193 148C 4528 211 4790 306 5054 460C 5489 714 5846 1097 6064 1544C 6157 1733 6202 1854 6250 2046C 6398 2635 6331 3248 6058 3795C 6020 3872 5984 3941 5978 3948C 5970 3957 5493 3960 3654 3960L3654 3960L1340 3960L1340 3210L1340 2460L3023 2458L4705 2455L4702 2432C 4701 2419 4687 2376 4671 2337C 4548 2030 4269 1817 3939 1780C 3875 1773 3314 1770 2175 1772L2175 1772L505 1775L505 3285L505 4795L2225 4795C 3844 4795 3952 4794 4065 4777C 4404 4725 4706 4610 4967 4435L4967 4435L5035 4390L5061 4418C 5174 4538 5310 4688 5310 4693C 5310 4710 5044 4873 4905 4940C 4720 5031 4588 5079 4404 5126C 4111 5200 4290 5194 2077 5197L2077 5197L90 5200L92 3283z" stroke="none" fill="#000000" fill-rule="nonzero" />
	</g>
</g>
</svg>